<svg width="37" height="37" viewBox="0 0 37 37" fill="none" xmlns="http://www.w3.org/2000/svg">
<path d="M33.696 25.791V7.68601C33.696 5.88601 32.226 4.55101 30.441 4.70101H30.351C27.201 4.97101 22.416 6.57601 19.746 8.25601L19.491 8.42101C19.056 8.69101 18.336 8.69101 17.901 8.42101L17.526 8.19601C14.856 6.53101 10.086 4.94101 6.93604 4.68601C5.15104 4.53601 3.69604 5.88601 3.69604 7.67101V25.791C3.69604 27.231 4.86604 28.581 6.30604 28.761L6.74104 28.821C9.99604 29.256 15.021 30.906 17.901 32.481L17.961 32.511C18.366 32.736 19.011 32.736 19.401 32.511C22.281 30.921 27.321 29.256 30.591 28.821L31.086 28.761C32.526 28.581 33.696 27.231 33.696 25.791Z" stroke="#FFA500" stroke-width="3.13043" stroke-linecap="round" stroke-linejoin="round"/>
<path opacity="0.4" d="M18.6958 8.91595V31.416" stroke="#FFA500" stroke-width="3.13043" stroke-linecap="round" stroke-linejoin="round"/>
<path opacity="0.4" d="M12.3206 13.416H8.94556" stroke="#FFA500" stroke-width="3.13043" stroke-linecap="round" stroke-linejoin="round"/>
<path opacity="0.4" d="M13.4456 17.916H8.94556" stroke="#FFA500" stroke-width="3.13043" stroke-linecap="round" stroke-linejoin="round"/>
</svg>
