<svg width="340" height="281" viewBox="0 0 340 281" fill="none" xmlns="http://www.w3.org/2000/svg">
<path d="M37.0898 71L34.5586 61.3672H17.8594L15.2578 71H0L16.7695 19.3906H35.2969L52.2773 71H37.0898ZM31.6758 49.9766L29.4609 41.5391C29.2266 40.625 28.8867 39.3242 28.4414 37.6367C27.9961 35.9258 27.5508 34.168 27.1055 32.3633C26.6836 30.5352 26.3555 29.0352 26.1211 27.8633C25.9102 29.0352 25.6055 30.4883 25.207 32.2227C24.832 33.9336 24.4336 35.6328 24.0117 37.3203C23.6133 39.0078 23.2617 40.4141 22.957 41.5391L20.7422 49.9766H31.6758ZM73.3992 71.7031C69.368 71.7031 65.8641 70.9883 62.8875 69.5586C59.9109 68.1055 57.6023 65.8789 55.9617 62.8789C54.3445 59.8555 53.5359 55.9883 53.5359 51.2773C53.5359 46.4492 54.4383 42.5 56.243 39.4297C58.0711 36.3594 60.5672 34.0977 63.7313 32.6445C66.8953 31.1914 70.4813 30.4648 74.4891 30.4648C76.9266 30.4648 79.2352 30.7344 81.4148 31.2734C83.618 31.8125 85.657 32.5508 87.532 33.4883L83.4891 43.6484C81.8484 42.9219 80.3133 42.3477 78.8836 41.9258C77.4773 41.4805 76.0125 41.2578 74.4891 41.2578C73.1063 41.2578 71.8875 41.6211 70.8328 42.3477C69.7781 43.0742 68.9578 44.1758 68.3719 45.6523C67.7859 47.1055 67.493 48.957 67.493 51.207C67.493 53.5039 67.7859 55.3555 68.3719 56.7617C68.9813 58.168 69.8133 59.1875 70.868 59.8203C71.9461 60.4531 73.1766 60.7695 74.5594 60.7695C76.5516 60.7695 78.532 60.4648 80.5008 59.8555C82.493 59.2227 84.3797 58.3555 86.1609 57.2539V68.1875C84.5203 69.2656 82.6688 70.1211 80.6063 70.7539C78.5438 71.3867 76.1414 71.7031 73.3992 71.7031ZM110.412 71.7031C106.38 71.7031 102.877 70.9883 99.9 69.5586C96.9234 68.1055 94.6148 65.8789 92.9742 62.8789C91.357 59.8555 90.5484 55.9883 90.5484 51.2773C90.5484 46.4492 91.4508 42.5 93.2555 39.4297C95.0836 36.3594 97.5797 34.0977 100.744 32.6445C103.908 31.1914 107.494 30.4648 111.502 30.4648C113.939 30.4648 116.248 30.7344 118.427 31.2734C120.63 31.8125 122.67 32.5508 124.545 33.4883L120.502 43.6484C118.861 42.9219 117.326 42.3477 115.896 41.9258C114.49 41.4805 113.025 41.2578 111.502 41.2578C110.119 41.2578 108.9 41.6211 107.845 42.3477C106.791 43.0742 105.97 44.1758 105.384 45.6523C104.798 47.1055 104.505 48.957 104.505 51.207C104.505 53.5039 104.798 55.3555 105.384 56.7617C105.994 58.168 106.826 59.1875 107.88 59.8203C108.959 60.4531 110.189 60.7695 111.572 60.7695C113.564 60.7695 115.545 60.4648 117.513 59.8555C119.505 59.2227 121.392 58.3555 123.173 57.2539V68.1875C121.533 69.2656 119.681 70.1211 117.619 70.7539C115.556 71.3867 113.154 71.7031 110.412 71.7031ZM147.213 30.4648C151.08 30.4648 154.42 31.1445 157.233 32.5039C160.045 33.8398 162.213 35.8555 163.737 38.5508C165.26 41.2461 166.022 44.6211 166.022 48.6758V54.793H141.448C141.565 56.8789 142.338 58.5898 143.768 59.9258C145.221 61.2617 147.354 61.9297 150.166 61.9297C152.651 61.9297 154.924 61.6836 156.987 61.1914C159.073 60.6992 161.217 59.9375 163.42 58.9062V68.7852C161.498 69.793 159.401 70.5312 157.127 71C154.854 71.4688 151.983 71.7031 148.514 71.7031C144.506 71.7031 140.92 70.9883 137.756 69.5586C134.592 68.1289 132.096 65.9141 130.268 62.9141C128.463 59.9141 127.561 56.0586 127.561 51.3477C127.561 46.5664 128.381 42.6406 130.022 39.5703C131.662 36.4766 133.959 34.1914 136.912 32.7148C139.866 31.2148 143.299 30.4648 147.213 30.4648ZM147.705 39.8164C146.088 39.8164 144.729 40.332 143.627 41.3633C142.549 42.3711 141.916 43.9648 141.729 46.1445H153.541C153.518 44.9727 153.284 43.9062 152.838 42.9453C152.393 41.9844 151.737 41.2227 150.87 40.6602C150.026 40.0977 148.971 39.8164 147.705 39.8164ZM201.593 58.7656C201.593 61.2969 201.03 63.5352 199.905 65.4805C198.78 67.4258 196.976 68.9492 194.491 70.0508C192.03 71.1523 188.784 71.7031 184.753 71.7031C181.917 71.7031 179.374 71.5508 177.124 71.2461C174.898 70.9414 172.636 70.3555 170.339 69.4883V58.4844C172.847 59.6328 175.402 60.4648 178.003 60.9805C180.605 61.4727 182.655 61.7188 184.155 61.7188C185.702 61.7188 186.827 61.5547 187.53 61.2266C188.257 60.875 188.62 60.3594 188.62 59.6797C188.62 59.0938 188.374 58.6016 187.882 58.2031C187.413 57.7812 186.558 57.3008 185.316 56.7617C184.097 56.2227 182.374 55.4961 180.148 54.582C177.945 53.668 176.105 52.6719 174.628 51.5938C173.175 50.5156 172.085 49.2266 171.359 47.7266C170.632 46.2266 170.269 44.3867 170.269 42.207C170.269 38.3164 171.769 35.3867 174.769 33.418C177.769 31.4492 181.741 30.4648 186.687 30.4648C189.312 30.4648 191.784 30.7578 194.105 31.3438C196.425 31.9062 198.827 32.7383 201.312 33.8398L197.55 42.6992C195.581 41.8086 193.589 41.0938 191.573 40.5547C189.558 40.0156 187.952 39.7461 186.757 39.7461C185.679 39.7461 184.847 39.8867 184.261 40.168C183.675 40.4492 183.382 40.8594 183.382 41.3984C183.382 41.8906 183.581 42.3242 183.98 42.6992C184.402 43.0742 185.187 43.5078 186.335 44C187.484 44.4922 189.159 45.1836 191.363 46.0742C193.683 47.0117 195.593 48.0195 197.093 49.0977C198.616 50.1523 199.741 51.4414 200.468 52.9648C201.218 54.4883 201.593 56.4219 201.593 58.7656ZM237.059 58.7656C237.059 61.2969 236.496 63.5352 235.371 65.4805C234.246 67.4258 232.441 68.9492 229.957 70.0508C227.496 71.1523 224.25 71.7031 220.219 71.7031C217.383 71.7031 214.84 71.5508 212.59 71.2461C210.363 70.9414 208.102 70.3555 205.805 69.4883V58.4844C208.312 59.6328 210.867 60.4648 213.469 60.9805C216.07 61.4727 218.121 61.7188 219.621 61.7188C221.168 61.7188 222.293 61.5547 222.996 61.2266C223.723 60.875 224.086 60.3594 224.086 59.6797C224.086 59.0938 223.84 58.6016 223.348 58.2031C222.879 57.7812 222.023 57.3008 220.781 56.7617C219.562 56.2227 217.84 55.4961 215.613 54.582C213.41 53.668 211.57 52.6719 210.094 51.5938C208.641 50.5156 207.551 49.2266 206.824 47.7266C206.098 46.2266 205.734 44.3867 205.734 42.207C205.734 38.3164 207.234 35.3867 210.234 33.418C213.234 31.4492 217.207 30.4648 222.152 30.4648C224.777 30.4648 227.25 30.7578 229.57 31.3438C231.891 31.9062 234.293 32.7383 236.777 33.8398L233.016 42.6992C231.047 41.8086 229.055 41.0938 227.039 40.5547C225.023 40.0156 223.418 39.7461 222.223 39.7461C221.145 39.7461 220.312 39.8867 219.727 40.168C219.141 40.4492 218.848 40.8594 218.848 41.3984C218.848 41.8906 219.047 42.3242 219.445 42.6992C219.867 43.0742 220.652 43.5078 221.801 44C222.949 44.4922 224.625 45.1836 226.828 46.0742C229.148 47.0117 231.059 48.0195 232.559 49.0977C234.082 50.1523 235.207 51.4414 235.934 52.9648C236.684 54.4883 237.059 56.4219 237.059 58.7656Z" fill="white"/>
<path d="M5.55469 168V116.602H19.4414V156.785H39.2344V168H5.55469ZM62.782 127.465C66.6492 127.465 69.9891 128.145 72.8016 129.504C75.6141 130.84 77.782 132.855 79.3055 135.551C80.8289 138.246 81.5906 141.621 81.5906 145.676V151.793H57.0164C57.1336 153.879 57.907 155.59 59.3367 156.926C60.7898 158.262 62.9227 158.93 65.7352 158.93C68.2195 158.93 70.493 158.684 72.5555 158.191C74.6414 157.699 76.7859 156.938 78.9891 155.906V165.785C77.0672 166.793 74.9695 167.531 72.6961 168C70.4227 168.469 67.5516 168.703 64.0828 168.703C60.075 168.703 56.4891 167.988 53.325 166.559C50.1609 165.129 47.6648 162.914 45.8367 159.914C44.032 156.914 43.1297 153.059 43.1297 148.348C43.1297 143.566 43.95 139.641 45.5906 136.57C47.2313 133.477 49.5281 131.191 52.4813 129.715C55.4344 128.215 58.868 127.465 62.782 127.465ZM63.2742 136.816C61.657 136.816 60.2977 137.332 59.1961 138.363C58.118 139.371 57.4852 140.965 57.2977 143.145H69.1102C69.0867 141.973 68.8523 140.906 68.407 139.945C67.9617 138.984 67.3055 138.223 66.4383 137.66C65.5945 137.098 64.5398 136.816 63.2742 136.816ZM107.002 127.465C112.041 127.465 115.978 128.719 118.814 131.227C121.65 133.711 123.068 137.262 123.068 141.879V168H113.541L110.904 162.727H110.623C109.498 164.133 108.338 165.281 107.142 166.172C105.97 167.039 104.623 167.672 103.099 168.07C101.576 168.492 99.7125 168.703 97.5094 168.703C95.2125 168.703 93.15 168.234 91.3219 167.297C89.4938 166.359 88.0523 164.941 86.9977 163.043C85.943 161.145 85.4156 158.742 85.4156 155.836C85.4156 151.57 86.8922 148.406 89.8453 146.344C92.7984 144.281 97.0758 143.121 102.677 142.863L109.322 142.652V142.09C109.322 140.309 108.877 139.043 107.986 138.293C107.119 137.543 105.947 137.168 104.47 137.168C102.9 137.168 101.142 137.449 99.1969 138.012C97.275 138.551 95.3414 139.254 93.3961 140.121L89.4234 131.051C91.7203 129.879 94.3219 128.988 97.2281 128.379C100.134 127.77 103.392 127.465 107.002 127.465ZM109.392 150.211L106.228 150.352C103.697 150.445 101.916 150.891 100.884 151.688C99.8766 152.461 99.3727 153.574 99.3727 155.027C99.3727 156.387 99.7359 157.395 100.463 158.051C101.189 158.684 102.15 159 103.345 159C105.009 159 106.427 158.473 107.599 157.418C108.795 156.363 109.392 154.992 109.392 153.305V150.211ZM154.666 127.465C155.416 127.465 156.202 127.523 157.022 127.641C157.842 127.734 158.452 127.816 158.85 127.887L157.62 140.859C157.174 140.742 156.6 140.648 155.897 140.578C155.194 140.484 154.209 140.438 152.944 140.438C152.077 140.438 151.151 140.52 150.166 140.684C149.182 140.848 148.245 141.199 147.354 141.738C146.487 142.254 145.772 143.051 145.209 144.129C144.647 145.184 144.366 146.613 144.366 148.418V168H130.62V128.168H140.85L142.995 134.531H143.662C144.389 133.219 145.315 132.035 146.44 130.98C147.588 129.902 148.866 129.047 150.272 128.414C151.702 127.781 153.166 127.465 154.666 127.465ZM187.566 127.465C191.667 127.465 195.019 128.625 197.62 130.945C200.222 133.266 201.523 136.98 201.523 142.09V168H187.777V146.273C187.777 143.625 187.39 141.633 186.616 140.297C185.866 138.938 184.648 138.258 182.96 138.258C180.359 138.258 178.613 139.324 177.722 141.457C176.831 143.566 176.386 146.602 176.386 150.562V168H162.64V128.168H173.011L174.874 133.441H175.402C176.245 132.176 177.253 131.098 178.425 130.207C179.597 129.316 180.945 128.637 182.468 128.168C183.991 127.699 185.691 127.465 187.566 127.465Z" fill="white"/>
<g filter="url(#filter0_d_214_8095)">
<path d="M28.4414 224.254C26.8008 224.254 25.3359 224.605 24.0469 225.309C22.7578 225.988 21.6562 226.984 20.7422 228.297C19.8281 229.609 19.125 231.215 18.6328 233.113C18.1641 234.988 17.9297 237.121 17.9297 239.512C17.9297 242.746 18.3398 245.465 19.1602 247.668C19.9805 249.871 21.2227 251.535 22.8867 252.66C24.5742 253.785 26.6836 254.348 29.2148 254.348C31.5117 254.348 33.7148 254.031 35.8242 253.398C37.957 252.766 40.1016 252.004 42.2578 251.113V262.855C39.9844 263.863 37.6523 264.59 35.2617 265.035C32.8945 265.48 30.375 265.703 27.7031 265.703C22.125 265.703 17.5547 264.602 13.9922 262.398C10.4531 260.172 7.83984 257.09 6.15234 253.152C4.48828 249.215 3.65625 244.645 3.65625 239.441C3.65625 235.551 4.19531 231.988 5.27344 228.754C6.375 225.52 7.98047 222.719 10.0898 220.352C12.1992 217.961 14.8008 216.121 17.8945 214.832C21.0117 213.52 24.5742 212.863 28.582 212.863C31.0664 212.863 33.6797 213.156 36.4219 213.742C39.1875 214.305 41.8828 215.219 44.5078 216.484L40.2539 227.418C38.3789 226.527 36.4805 225.777 34.5586 225.168C32.6367 224.559 30.5977 224.254 28.4414 224.254ZM87.743 244.996C87.743 248.324 87.2859 251.277 86.3719 253.855C85.4578 256.434 84.1336 258.602 82.3992 260.359C80.6648 262.117 78.5672 263.453 76.1063 264.367C73.6453 265.258 70.868 265.703 67.7742 265.703C64.8914 265.703 62.243 265.258 59.8289 264.367C57.4383 263.453 55.3523 262.117 53.5711 260.359C51.7898 258.602 50.407 256.434 49.4227 253.855C48.4617 251.277 47.9813 248.324 47.9813 244.996C47.9813 240.59 48.7781 236.863 50.3719 233.816C51.9891 230.77 54.2859 228.449 57.2625 226.855C60.2625 225.262 63.8367 224.465 67.9852 224.465C71.8055 224.465 75.2039 225.262 78.1805 226.855C81.157 228.449 83.4891 230.77 85.1766 233.816C86.8875 236.863 87.743 240.59 87.743 244.996ZM61.9383 244.996C61.9383 247.27 62.1375 249.191 62.5359 250.762C62.9344 252.309 63.5672 253.492 64.4344 254.312C65.325 255.109 66.4852 255.508 67.9148 255.508C69.3445 255.508 70.4813 255.109 71.325 254.312C72.1688 253.492 72.7781 252.309 73.1531 250.762C73.5516 249.191 73.7508 247.27 73.7508 244.996C73.7508 242.723 73.5516 240.824 73.1531 239.301C72.7781 237.777 72.157 236.629 71.2898 235.855C70.4461 235.082 69.2977 234.695 67.8445 234.695C65.7586 234.695 64.2469 235.562 63.3094 237.297C62.3953 239.031 61.9383 241.598 61.9383 244.996ZM118.744 224.465C122.845 224.465 126.197 225.625 128.798 227.945C131.4 230.266 132.701 233.98 132.701 239.09V265H118.955V243.273C118.955 240.625 118.568 238.633 117.795 237.297C117.045 235.938 115.826 235.258 114.138 235.258C111.537 235.258 109.791 236.324 108.9 238.457C108.009 240.566 107.564 243.602 107.564 247.562V265H93.818V225.168H104.189L106.052 230.441H106.58C107.423 229.176 108.431 228.098 109.603 227.207C110.775 226.316 112.123 225.637 113.646 225.168C115.17 224.699 116.869 224.465 118.744 224.465ZM165.178 224.465C169.28 224.465 172.631 225.625 175.233 227.945C177.834 230.266 179.135 233.98 179.135 239.09V265H165.389V243.273C165.389 240.625 165.002 238.633 164.229 237.297C163.479 235.938 162.26 235.258 160.573 235.258C157.971 235.258 156.225 236.324 155.334 238.457C154.444 240.566 153.998 243.602 153.998 247.562V265H140.252V225.168H150.623L152.487 230.441H153.014C153.858 229.176 154.866 228.098 156.038 227.207C157.209 226.316 158.557 225.637 160.08 225.168C161.604 224.699 163.303 224.465 165.178 224.465ZM204.616 224.465C208.484 224.465 211.823 225.145 214.636 226.504C217.448 227.84 219.616 229.855 221.14 232.551C222.663 235.246 223.425 238.621 223.425 242.676V248.793H198.851C198.968 250.879 199.741 252.59 201.171 253.926C202.624 255.262 204.757 255.93 207.57 255.93C210.054 255.93 212.327 255.684 214.39 255.191C216.476 254.699 218.62 253.938 220.823 252.906V262.785C218.902 263.793 216.804 264.531 214.53 265C212.257 265.469 209.386 265.703 205.917 265.703C201.909 265.703 198.323 264.988 195.159 263.559C191.995 262.129 189.499 259.914 187.671 256.914C185.866 253.914 184.964 250.059 184.964 245.348C184.964 240.566 185.784 236.641 187.425 233.57C189.066 230.477 191.363 228.191 194.316 226.715C197.269 225.215 200.702 224.465 204.616 224.465ZM205.109 233.816C203.491 233.816 202.132 234.332 201.03 235.363C199.952 236.371 199.32 237.965 199.132 240.145H210.945C210.921 238.973 210.687 237.906 210.241 236.945C209.796 235.984 209.14 235.223 208.273 234.66C207.429 234.098 206.374 233.816 205.109 233.816ZM247.535 265.703C243.504 265.703 240 264.988 237.023 263.559C234.047 262.105 231.738 259.879 230.098 256.879C228.48 253.855 227.672 249.988 227.672 245.277C227.672 240.449 228.574 236.5 230.379 233.43C232.207 230.359 234.703 228.098 237.867 226.645C241.031 225.191 244.617 224.465 248.625 224.465C251.062 224.465 253.371 224.734 255.551 225.273C257.754 225.812 259.793 226.551 261.668 227.488L257.625 237.648C255.984 236.922 254.449 236.348 253.02 235.926C251.613 235.48 250.148 235.258 248.625 235.258C247.242 235.258 246.023 235.621 244.969 236.348C243.914 237.074 243.094 238.176 242.508 239.652C241.922 241.105 241.629 242.957 241.629 245.207C241.629 247.504 241.922 249.355 242.508 250.762C243.117 252.168 243.949 253.188 245.004 253.82C246.082 254.453 247.312 254.77 248.695 254.77C250.688 254.77 252.668 254.465 254.637 253.855C256.629 253.223 258.516 252.355 260.297 251.254V262.188C258.656 263.266 256.805 264.121 254.742 264.754C252.68 265.387 250.277 265.703 247.535 265.703ZM285.919 254.84C287.161 254.84 288.298 254.711 289.329 254.453C290.36 254.195 291.438 253.867 292.563 253.469V263.488C291.063 264.145 289.47 264.672 287.782 265.07C286.118 265.492 283.985 265.703 281.384 265.703C278.805 265.703 276.532 265.305 274.563 264.508C272.595 263.688 271.059 262.281 269.958 260.289C268.88 258.273 268.341 255.473 268.341 251.887V235.469H263.524V229.879L269.641 225.555L273.192 217.188H282.192V225.168H291.966V235.469H282.192V250.973C282.192 252.262 282.52 253.234 283.177 253.891C283.833 254.523 284.747 254.84 285.919 254.84ZM309.255 246.859H297.654L295.861 213.602H311.048L309.255 246.859ZM296.002 259.164C296.002 256.68 296.728 254.934 298.181 253.926C299.658 252.918 301.404 252.414 303.42 252.414C305.412 252.414 307.123 252.918 308.552 253.926C309.982 254.934 310.697 256.68 310.697 259.164C310.697 261.531 309.982 263.242 308.552 264.297C307.123 265.352 305.412 265.879 303.42 265.879C301.404 265.879 299.658 265.352 298.181 264.297C296.728 263.242 296.002 261.531 296.002 259.164ZM328.338 246.859H316.737L314.944 213.602H330.131L328.338 246.859ZM315.084 259.164C315.084 256.68 315.811 254.934 317.264 253.926C318.741 252.918 320.487 252.414 322.502 252.414C324.495 252.414 326.205 252.918 327.635 253.926C329.065 254.934 329.78 256.68 329.78 259.164C329.78 261.531 329.065 263.242 327.635 264.297C326.205 265.352 324.495 265.879 322.502 265.879C320.487 265.879 318.741 265.352 317.264 264.297C315.811 263.242 315.084 261.531 315.084 259.164Z" fill="#5E48DB"/>
</g>
<defs>
<filter id="filter0_d_214_8095" x="3.65625" y="212.863" width="335.475" height="56.0156" filterUnits="userSpaceOnUse" color-interpolation-filters="sRGB">
<feFlood flood-opacity="0" result="BackgroundImageFix"/>
<feColorMatrix in="SourceAlpha" type="matrix" values="0 0 0 0 0 0 0 0 0 0 0 0 0 0 0 0 0 0 127 0" result="hardAlpha"/>
<feOffset dx="9" dy="3"/>
<feComposite in2="hardAlpha" operator="out"/>
<feColorMatrix type="matrix" values="0 0 0 0 0 0 0 0 0 0 0 0 0 0 0 0 0 0 1 0"/>
<feBlend mode="normal" in2="BackgroundImageFix" result="effect1_dropShadow_214_8095"/>
<feBlend mode="normal" in="SourceGraphic" in2="effect1_dropShadow_214_8095" result="shape"/>
</filter>
</defs>
</svg>
