<svg width="117" height="30" viewBox="0 0 117 30" fill="none" xmlns="http://www.w3.org/2000/svg">
<circle cx="8.57901" cy="16.5797" r="8.57901" fill="#FFA500"/>
<circle cx="21.2216" cy="17.9343" r="6.32137" transform="rotate(-26.5103 21.2216 17.9343)" stroke="#FFA500" stroke-width="4.51527"/>
<circle cx="15.2152" cy="10.7781" r="8.57901" transform="rotate(12.3816 15.2152 10.7781)" fill="#FFA500"/>
<circle cx="114.59" cy="9.38527" r="1.20485" fill="#FFA500"/>
<circle cx="116.398" cy="11.1925" r="0.602427" fill="#FFA500"/>
<path d="M37.7831 17.7889C38.9762 17.7889 39.7598 16.8217 39.7598 15.2897C39.7598 13.7648 38.9762 12.7623 37.7831 12.7623C36.6112 12.7623 35.8488 13.7436 35.8488 15.2897C35.8488 16.8429 36.6112 17.7889 37.7831 17.7889ZM37.7972 21.8199C36.0464 21.8199 34.7475 20.8881 34.5568 19.6032H36.0888C36.3076 20.2244 36.9854 20.6339 37.8537 20.6339C39.0468 20.6339 39.7528 19.9562 39.7528 18.9396V17.7183H39.7245C39.308 18.5231 38.4326 19.0525 37.3737 19.0525C35.5099 19.0525 34.2886 17.5982 34.2886 15.2827C34.2886 12.9459 35.5028 11.4775 37.409 11.4775C38.4609 11.4775 39.3221 12.007 39.774 12.8682H39.8022V11.5975H41.2847V18.8902C41.2847 20.6621 39.9152 21.8199 37.7972 21.8199Z" fill="#0A0A0A"/>
<path d="M45.3935 17.9442C46.4595 17.9442 47.2925 17.21 47.2925 16.2428V15.6568L45.4641 15.7698C44.5534 15.8333 44.038 16.2357 44.038 16.8711C44.038 17.5206 44.5746 17.9442 45.3935 17.9442ZM44.9699 19.1514C43.5156 19.1514 42.499 18.2477 42.499 16.9135C42.499 15.6145 43.4944 14.8167 45.2593 14.7179L47.2925 14.5979V14.026C47.2925 13.2001 46.7348 12.7059 45.8029 12.7059C44.9205 12.7059 44.3698 13.1295 44.2357 13.7931H42.7955C42.8802 12.4517 44.0239 11.4634 45.8594 11.4634C47.6596 11.4634 48.8104 12.4164 48.8104 13.906V19.0243H47.349V17.803H47.3137C46.8831 18.629 45.9441 19.1514 44.9699 19.1514Z" fill="#0A0A0A"/>
<path d="M50.2929 19.0243V11.5975H51.7472V12.8612H51.7825C52.0296 11.9928 52.6932 11.4775 53.5686 11.4775C53.7875 11.4775 53.9781 11.5128 54.091 11.534V12.953C53.971 12.9035 53.7027 12.8682 53.4062 12.8682C52.4249 12.8682 51.8178 13.5248 51.8178 14.5767V19.0243H50.2929Z" fill="#0A0A0A"/>
<path d="M55.4818 9.83964H57.0137V11.5975H58.4257V12.8047H57.0137V16.8993C57.0137 17.5418 57.2961 17.8312 57.9174 17.8312C58.0727 17.8312 58.3198 17.8171 58.4186 17.7959V19.0031C58.2492 19.0455 57.9103 19.0737 57.5715 19.0737C56.0677 19.0737 55.4818 18.5019 55.4818 17.0688V12.8047H54.4017V11.5975H55.4818V9.83964Z" fill="#0A0A0A"/>
<path d="M62.605 12.6918C61.539 12.6918 60.7907 13.5036 60.713 14.6261H64.4264C64.3911 13.4895 63.671 12.6918 62.605 12.6918ZM64.4194 16.8429H65.8666C65.6548 18.1983 64.3699 19.1655 62.6686 19.1655C60.4871 19.1655 59.1669 17.69 59.1669 15.3462C59.1669 13.0165 60.5083 11.4634 62.605 11.4634C64.6665 11.4634 65.9513 12.9177 65.9513 15.1697V15.6921H60.706V15.7839C60.706 17.0758 61.4825 17.93 62.7039 17.93C63.5722 17.93 64.2146 17.4923 64.4194 16.8429Z" fill="#0A0A0A"/>
<path d="M68.7328 14.7814L71.7332 11.5975H73.5264L70.4483 14.7955L73.6464 19.0243H71.8744L69.3541 15.7274L68.7187 16.3557V19.0243H67.1938V8.83716H68.7187V14.7814H68.7328Z" fill="#0A0A0A"/>
<path d="M80.459 14.1531H79.0047C78.8494 13.3624 78.2564 12.7341 77.261 12.7341C76.082 12.7341 75.3054 13.7154 75.3054 15.3109C75.3054 16.9417 76.089 17.8877 77.2751 17.8877C78.214 17.8877 78.8282 17.3723 79.0047 16.511H80.4731C80.3107 18.0924 79.0471 19.1655 77.261 19.1655C75.136 19.1655 73.7523 17.7112 73.7523 15.3109C73.7523 12.953 75.136 11.4634 77.2468 11.4634C79.16 11.4634 80.3249 12.6918 80.459 14.1531Z" fill="#0A0A0A"/>
<path d="M81.6097 19.0243V8.83716H83.1346V19.0243H81.6097Z" fill="#0A0A0A"/>
<path d="M87.8929 19.1655C85.7679 19.1655 84.3701 17.7041 84.3701 15.3109C84.3701 12.9247 85.7749 11.4634 87.8929 11.4634C90.0108 11.4634 91.4156 12.9247 91.4156 15.3109C91.4156 17.7041 90.0178 19.1655 87.8929 19.1655ZM87.8929 17.9089C89.093 17.9089 89.8625 16.9629 89.8625 15.3109C89.8625 13.666 89.0859 12.72 87.8929 12.72C86.6998 12.72 85.9232 13.666 85.9232 15.3109C85.9232 16.9629 86.6998 17.9089 87.8929 17.9089Z" fill="#0A0A0A"/>
<path d="M98.9625 11.5975V19.0243H97.5011V17.7677H97.4658C97.0563 18.6572 96.301 19.1584 95.1643 19.1584C93.5477 19.1584 92.5593 18.1065 92.5593 16.4052V11.5975H94.0842V16.1086C94.0842 17.2382 94.6208 17.8453 95.6726 17.8453C96.774 17.8453 97.4376 17.0829 97.4376 15.9251V11.5975H98.9625Z" fill="#0A0A0A"/>
<path d="M103.262 19.1514C101.384 19.1514 100.141 17.6547 100.141 15.3109C100.141 12.9671 101.384 11.4775 103.248 11.4775C104.314 11.4775 105.161 12.014 105.577 12.8329H105.606V8.83716H107.138V19.0243H105.655V17.7606H105.627C105.189 18.6078 104.342 19.1514 103.262 19.1514ZM103.664 12.7623C102.457 12.7623 101.702 13.7507 101.702 15.3109C101.702 16.8782 102.457 17.8594 103.664 17.8594C104.836 17.8594 105.62 16.864 105.62 15.3109C105.62 13.7719 104.836 12.7623 103.664 12.7623Z" fill="#0A0A0A"/>
<path d="M111.811 12.6918C110.745 12.6918 109.997 13.5036 109.919 14.6261H113.633C113.597 13.4895 112.877 12.6918 111.811 12.6918ZM113.625 16.8429H115.073C114.861 18.1983 113.576 19.1655 111.875 19.1655C109.693 19.1655 108.373 17.69 108.373 15.3462C108.373 13.0165 109.714 11.4634 111.811 11.4634C113.873 11.4634 115.157 12.9177 115.157 15.1697V15.6921H109.912V15.7839C109.912 17.0758 110.689 17.93 111.91 17.93C112.778 17.93 113.421 17.4923 113.625 16.8429Z" fill="#0A0A0A"/>
</svg>
