<svg width="117" height="29" viewBox="0 0 117 29" fill="none" xmlns="http://www.w3.org/2000/svg">
<circle cx="8.57901" cy="16.0204" r="8.57901" fill="white"/>
<circle cx="21.2216" cy="17.375" r="6.32137" transform="rotate(-26.5103 21.2216 17.375)" stroke="white" stroke-width="4.51527"/>
<circle cx="15.2152" cy="10.2187" r="8.57901" transform="rotate(12.3816 15.2152 10.2187)" fill="white"/>
<circle cx="114.59" cy="8.82595" r="1.20485" fill="white"/>
<circle cx="116.398" cy="10.6332" r="0.602427" fill="white"/>
<path d="M37.7831 17.2295C38.9762 17.2295 39.7598 16.2623 39.7598 14.7304C39.7598 13.2055 38.9762 12.203 37.7831 12.203C36.6112 12.203 35.8488 13.1843 35.8488 14.7304C35.8488 16.2835 36.6112 17.2295 37.7831 17.2295ZM37.7972 21.2606C36.0464 21.2606 34.7475 20.3287 34.5568 19.0439H36.0888C36.3076 19.6651 36.9854 20.0746 37.8537 20.0746C39.0468 20.0746 39.7528 19.3969 39.7528 18.3803V17.1589H39.7245C39.308 17.9637 38.4326 18.4932 37.3737 18.4932C35.5099 18.4932 34.2886 17.0389 34.2886 14.7233C34.2886 12.3866 35.5028 10.9182 37.409 10.9182C38.4609 10.9182 39.3221 11.4476 39.774 12.3089H39.8022V11.0382H41.2847V18.3308C41.2847 20.1028 39.9152 21.2606 37.7972 21.2606Z" fill="white"/>
<path d="M45.3935 17.3848C46.4595 17.3848 47.2925 16.6506 47.2925 15.6835V15.0975L45.4641 15.2105C44.5534 15.274 44.038 15.6764 44.038 16.3118C44.038 16.9613 44.5746 17.3848 45.3935 17.3848ZM44.9699 18.592C43.5156 18.592 42.499 17.6884 42.499 16.3541C42.499 15.0551 43.4944 14.2574 45.2593 14.1586L47.2925 14.0385V13.4667C47.2925 12.6407 46.7348 12.1465 45.8029 12.1465C44.9205 12.1465 44.3698 12.5701 44.2357 13.2337H42.7955C42.8802 11.8924 44.0239 10.904 45.8594 10.904C47.6596 10.904 48.8104 11.8571 48.8104 13.3467V18.465H47.349V17.2436H47.3137C46.8831 18.0696 45.9441 18.592 44.9699 18.592Z" fill="white"/>
<path d="M50.2929 18.465V11.0382H51.7472V12.3019H51.7825C52.0296 11.4335 52.6932 10.9182 53.5686 10.9182C53.7875 10.9182 53.9781 10.9535 54.091 10.9746V12.3936C53.971 12.3442 53.7027 12.3089 53.4062 12.3089C52.4249 12.3089 51.8178 12.9655 51.8178 14.0174V18.465H50.2929Z" fill="white"/>
<path d="M55.4818 9.28031H57.0137V11.0382H58.4257V12.2454H57.0137V16.34C57.0137 16.9824 57.2961 17.2719 57.9174 17.2719C58.0727 17.2719 58.3198 17.2578 58.4186 17.2366V18.4438C58.2492 18.4862 57.9103 18.5144 57.5715 18.5144C56.0677 18.5144 55.4818 17.9426 55.4818 16.5094V12.2454H54.4017V11.0382H55.4818V9.28031Z" fill="white"/>
<path d="M62.605 12.1324C61.539 12.1324 60.7907 12.9443 60.713 14.0668H64.4264C64.3911 12.9302 63.671 12.1324 62.605 12.1324ZM64.4194 16.2835H65.8666C65.6548 17.639 64.3699 18.6062 62.6686 18.6062C60.4871 18.6062 59.1669 17.1307 59.1669 14.7869C59.1669 12.4572 60.5083 10.904 62.605 10.904C64.6665 10.904 65.9513 12.3583 65.9513 14.6104V15.1328H60.706V15.2246C60.706 16.5165 61.4825 17.3707 62.7039 17.3707C63.5722 17.3707 64.2146 16.933 64.4194 16.2835Z" fill="white"/>
<path d="M68.7328 14.2221L71.7332 11.0382H73.5264L70.4483 14.2362L73.6464 18.465H71.8744L69.3541 15.1681L68.7187 15.7964V18.465H67.1938V8.27783H68.7187V14.2221H68.7328Z" fill="white"/>
<path d="M80.459 13.5938H79.0047C78.8494 12.8031 78.2564 12.1748 77.261 12.1748C76.082 12.1748 75.3054 13.1561 75.3054 14.7516C75.3054 16.3824 76.089 17.3284 77.2751 17.3284C78.214 17.3284 78.8282 16.813 79.0047 15.9517H80.4731C80.3107 17.5331 79.0471 18.6062 77.261 18.6062C75.136 18.6062 73.7523 17.1519 73.7523 14.7516C73.7523 12.3936 75.136 10.904 77.2468 10.904C79.16 10.904 80.3249 12.1324 80.459 13.5938Z" fill="white"/>
<path d="M81.6097 18.465V8.27783H83.1346V18.465H81.6097Z" fill="white"/>
<path d="M87.8929 18.6062C85.7679 18.6062 84.3701 17.1448 84.3701 14.7516C84.3701 12.3654 85.7749 10.904 87.8929 10.904C90.0108 10.904 91.4156 12.3654 91.4156 14.7516C91.4156 17.1448 90.0178 18.6062 87.8929 18.6062ZM87.8929 17.3495C89.093 17.3495 89.8625 16.4035 89.8625 14.7516C89.8625 13.1067 89.0859 12.1607 87.8929 12.1607C86.6998 12.1607 85.9232 13.1067 85.9232 14.7516C85.9232 16.4035 86.6998 17.3495 87.8929 17.3495Z" fill="white"/>
<path d="M98.9625 11.0382V18.465H97.5011V17.2083H97.4658C97.0563 18.0979 96.301 18.5991 95.1643 18.5991C93.5477 18.5991 92.5593 17.5472 92.5593 15.8458V11.0382H94.0842V15.5493C94.0842 16.6789 94.6208 17.286 95.6726 17.286C96.774 17.286 97.4376 16.5236 97.4376 15.3658V11.0382H98.9625Z" fill="white"/>
<path d="M103.262 18.592C101.384 18.592 100.141 17.0954 100.141 14.7516C100.141 12.4078 101.384 10.9182 103.248 10.9182C104.314 10.9182 105.161 11.4547 105.577 12.2736H105.606V8.27783H107.138V18.465H105.655V17.2013H105.627C105.189 18.0485 104.342 18.592 103.262 18.592ZM103.664 12.203C102.457 12.203 101.702 13.1914 101.702 14.7516C101.702 16.3188 102.457 17.3001 103.664 17.3001C104.836 17.3001 105.62 16.3047 105.62 14.7516C105.62 13.2126 104.836 12.203 103.664 12.203Z" fill="white"/>
<path d="M111.811 12.1324C110.745 12.1324 109.997 12.9443 109.919 14.0668H113.633C113.597 12.9302 112.877 12.1324 111.811 12.1324ZM113.625 16.2835H115.073C114.861 17.639 113.576 18.6062 111.875 18.6062C109.693 18.6062 108.373 17.1307 108.373 14.7869C108.373 12.4572 109.714 10.904 111.811 10.904C113.873 10.904 115.157 12.3583 115.157 14.6104V15.1328H109.912V15.2246C109.912 16.5165 110.689 17.3707 111.91 17.3707C112.778 17.3707 113.421 16.933 113.625 16.2835Z" fill="white"/>
</svg>
