<svg width="36" height="36" viewBox="0 0 36 36" fill="none" xmlns="http://www.w3.org/2000/svg">
<path d="M15.3135 3.98167L8.03058 6.72553C6.35216 7.35312 4.98022 9.33804 4.98022 11.1186V21.9627C4.98022 23.6849 6.11863 25.9472 7.50516 26.9834L13.781 31.6684C15.8389 33.2155 19.225 33.2155 21.2828 31.6684L27.5587 26.9834C28.9452 25.9472 30.0836 23.6849 30.0836 21.9627V11.1186C30.0836 9.32344 28.7117 7.33852 27.0333 6.71093L19.7504 3.98167C18.5098 3.52922 16.5249 3.52922 15.3135 3.98167Z" stroke="#FFA500" stroke-width="3.07692" stroke-linecap="round" stroke-linejoin="round"/>
<g opacity="0.4">
<path d="M17.5169 18.9707C19.129 18.9707 20.4359 17.6638 20.4359 16.0517C20.4359 14.4396 19.129 13.1327 17.5169 13.1327C15.9048 13.1327 14.5979 14.4396 14.5979 16.0517C14.5979 17.6638 15.9048 18.9707 17.5169 18.9707Z" stroke="#FFA500" stroke-width="3.07692" stroke-miterlimit="10" stroke-linecap="round" stroke-linejoin="round"/>
<path d="M17.5171 18.9707V23.3492" stroke="#FFA500" stroke-width="3.07692" stroke-miterlimit="10" stroke-linecap="round" stroke-linejoin="round"/>
</g>
</svg>
